<svg width="2785" height="396" viewBox="0 0 2785 396" fill="none" xmlns="http://www.w3.org/2000/svg">
<circle cx="198" cy="198" r="198" fill="url(#paint0_linear)"/>
<path d="M267.132 157.126L206.108 249.713L148.053 206.24L85.9998 290.753" stroke="white" stroke-width="37"/>
<path d="M309.5 96L208 135L309.5 197.5V96Z" fill="white"/>
<path d="M581.87 123.86H523.771V285H500.059V123.86H442.083V104.245H581.87V123.86ZM650.408 171.283C646.932 170.704 643.167 170.414 639.111 170.414C624.048 170.414 613.827 176.828 608.447 189.657V285H585.481V150.675H607.827L608.199 166.193C615.731 154.193 626.407 148.192 640.229 148.192C644.698 148.192 648.091 148.772 650.408 149.93V171.283ZM714.725 287.483C696.518 287.483 681.703 281.524 670.282 269.606C658.86 257.605 653.15 241.591 653.15 221.562V217.341C653.15 204.016 655.674 192.14 660.722 181.711C665.854 171.2 672.971 163.007 682.075 157.131C691.262 151.172 701.194 148.192 711.87 148.192C729.333 148.192 742.906 153.944 752.59 165.448C762.273 176.952 767.115 193.422 767.115 214.858V224.417H676.116C676.447 237.659 680.296 248.377 687.662 256.571C695.111 264.682 704.546 268.737 715.967 268.737C724.078 268.737 730.947 267.082 736.575 263.771C742.203 260.461 747.127 256.074 751.348 250.612L765.377 261.537C754.121 278.834 737.237 287.483 714.725 287.483ZM711.87 167.062C702.601 167.062 694.821 170.456 688.531 177.242C682.241 183.946 678.351 193.381 676.861 205.547H744.148V203.809C743.486 192.14 740.341 183.118 734.713 176.746C729.085 170.29 721.471 167.062 711.87 167.062ZM805.361 150.675L806.106 167.559C816.369 154.648 829.776 148.192 846.329 148.192C874.717 148.192 889.035 164.207 889.283 196.236V285H866.316V196.112C866.234 186.429 863.999 179.27 859.613 174.635C855.309 170 848.564 167.683 839.377 167.683C831.928 167.683 825.39 169.669 819.762 173.642C814.134 177.615 809.748 182.829 806.603 189.284V285H783.636V150.675H805.361ZM908.163 216.72C908.163 196.112 913.046 179.559 922.812 167.062C932.578 154.482 945.365 148.192 961.173 148.192C976.898 148.192 989.354 153.572 998.541 164.331V94.3132H1021.51V285H1000.4L999.286 270.599C990.099 281.855 977.312 287.483 960.925 287.483C945.365 287.483 932.661 281.11 922.812 268.365C913.046 255.619 908.163 238.984 908.163 218.458V216.72ZM931.13 219.327C931.13 234.556 934.275 246.474 940.565 255.081C946.855 263.688 955.545 267.992 966.636 267.992C981.202 267.992 991.837 261.454 998.541 248.377V186.677C991.671 174.014 981.119 167.683 966.884 167.683C955.628 167.683 946.855 172.028 940.565 180.718C934.275 189.408 931.13 202.278 931.13 219.327ZM1072.04 285H1049.08V150.675H1072.04V285ZM1047.22 115.045C1047.22 111.321 1048.33 108.176 1050.57 105.61C1052.88 103.045 1056.28 101.762 1060.75 101.762C1065.22 101.762 1068.61 103.045 1070.93 105.61C1073.24 108.176 1074.4 111.321 1074.4 115.045C1074.4 118.77 1073.24 121.873 1070.93 124.356C1068.61 126.839 1065.22 128.081 1060.75 128.081C1056.28 128.081 1052.88 126.839 1050.57 124.356C1048.33 121.873 1047.22 118.77 1047.22 115.045ZM1120.47 150.675L1121.22 167.559C1131.48 154.648 1144.89 148.192 1161.44 148.192C1189.83 148.192 1204.14 164.207 1204.39 196.236V285H1181.43V196.112C1181.34 186.429 1179.11 179.27 1174.72 174.635C1170.42 170 1163.67 167.683 1154.49 167.683C1147.04 167.683 1140.5 169.669 1134.87 173.642C1129.24 177.615 1124.86 182.829 1121.71 189.284V285H1098.75V150.675H1120.47ZM1223.4 216.72C1223.4 195.781 1228.24 179.146 1237.92 166.814C1247.61 154.399 1260.43 148.192 1276.41 148.192C1292.79 148.192 1305.58 153.986 1314.77 165.572L1315.89 150.675H1336.87V281.772C1336.87 299.153 1331.69 312.85 1321.35 322.864C1311.09 332.879 1297.26 337.886 1279.88 337.886C1270.2 337.886 1260.72 335.817 1251.45 331.679C1242.18 327.54 1235.11 321.871 1230.23 314.671L1242.14 300.891C1251.99 313.057 1264.03 319.14 1278.27 319.14C1289.44 319.14 1298.13 315.995 1304.34 309.705C1310.63 303.415 1313.77 294.559 1313.77 283.138V271.592C1304.59 282.186 1292.05 287.483 1276.16 287.483C1260.43 287.483 1247.69 281.152 1237.92 268.489C1228.24 255.826 1223.4 238.57 1223.4 216.72ZM1246.49 219.327C1246.49 234.473 1249.59 246.391 1255.8 255.081C1262.01 263.688 1270.7 267.992 1281.87 267.992C1296.35 267.992 1306.99 261.412 1313.77 248.253V186.925C1306.74 174.097 1296.19 167.683 1282.12 167.683C1270.94 167.683 1262.21 172.028 1255.92 180.718C1249.63 189.408 1246.49 202.278 1246.49 219.327ZM1448.49 285H1417.21V104.245H1448.49V285ZM1502.01 150.675L1502.88 166.193C1512.81 154.193 1525.84 148.192 1541.98 148.192C1569.96 148.192 1584.19 164.207 1584.69 196.236V285H1554.52V197.974C1554.52 189.45 1552.66 183.16 1548.94 179.104C1545.29 174.966 1539.29 172.897 1530.93 172.897C1518.77 172.897 1509.71 178.401 1503.75 189.408V285H1473.58V150.675H1502.01ZM1643.17 118.025V150.675H1666.88V173.021H1643.17V248.005C1643.17 253.136 1644.16 256.86 1646.15 259.178C1648.22 261.412 1651.86 262.53 1657.08 262.53C1660.55 262.53 1664.07 262.116 1667.63 261.288V284.628C1660.76 286.531 1654.14 287.483 1647.76 287.483C1624.59 287.483 1613 274.696 1613 249.122V173.021H1590.91V150.675H1613V118.025H1643.17ZM1739.02 287.483C1719.9 287.483 1704.38 281.483 1692.47 269.482C1680.63 257.398 1674.71 241.342 1674.71 221.314V217.589C1674.71 204.182 1677.28 192.222 1682.41 181.711C1687.63 171.118 1694.91 162.883 1704.26 157.006C1713.61 151.13 1724.04 148.192 1735.55 148.192C1753.84 148.192 1767.95 154.027 1777.88 165.697C1787.89 177.366 1792.9 193.878 1792.9 215.23V227.397H1705.13C1706.04 238.487 1709.72 247.26 1716.18 253.715C1722.72 260.171 1730.91 263.399 1740.76 263.399C1754.58 263.399 1765.84 257.812 1774.53 246.639L1790.79 262.157C1785.41 270.185 1778.21 276.434 1769.19 280.903C1760.25 285.29 1750.19 287.483 1739.02 287.483ZM1735.42 172.4C1727.14 172.4 1720.44 175.297 1715.31 181.091C1710.26 186.884 1707.03 194.953 1705.63 205.299H1763.11V203.064C1762.44 192.967 1759.75 185.353 1755.04 180.222C1750.32 175.008 1743.78 172.4 1735.42 172.4ZM1876.58 178.235C1872.61 177.573 1868.51 177.242 1864.29 177.242C1850.47 177.242 1841.16 182.539 1836.36 193.133V285H1806.19V150.675H1835L1835.74 165.697C1843.02 154.027 1853.12 148.192 1866.03 148.192C1870.34 148.192 1873.89 148.772 1876.71 149.93L1876.58 178.235ZM1913.46 150.675L1914.33 166.193C1924.27 154.193 1937.3 148.192 1953.44 148.192C1981.41 148.192 1995.65 164.207 1996.15 196.236V285H1965.98V197.974C1965.98 189.45 1964.12 183.16 1960.39 179.104C1956.75 174.966 1950.75 172.897 1942.39 172.897C1930.22 172.897 1921.16 178.401 1915.2 189.408V285H1885.04V150.675H1913.46ZM2075.98 287.483C2056.86 287.483 2041.34 281.483 2029.43 269.482C2017.59 257.398 2011.67 241.342 2011.67 221.314V217.589C2011.67 204.182 2014.24 192.222 2019.37 181.711C2024.58 171.118 2031.87 162.883 2041.22 157.006C2050.57 151.13 2061 148.192 2072.5 148.192C2090.8 148.192 2104.91 154.027 2114.84 165.697C2124.85 177.366 2129.86 193.878 2129.86 215.23V227.397H2042.09C2043 238.487 2046.68 247.26 2053.14 253.715C2059.68 260.171 2067.87 263.399 2077.72 263.399C2091.54 263.399 2102.8 257.812 2111.49 246.639L2127.75 262.157C2122.37 270.185 2115.17 276.434 2106.15 280.903C2097.21 285.29 2087.15 287.483 2075.98 287.483ZM2072.38 172.4C2064.1 172.4 2057.4 175.297 2052.27 181.091C2047.22 186.884 2043.99 194.953 2042.59 205.299H2100.06V203.064C2099.4 192.967 2096.71 185.353 2092 180.222C2087.28 175.008 2080.74 172.4 2072.38 172.4ZM2181.02 118.025V150.675H2204.73V173.021H2181.02V248.005C2181.02 253.136 2182.01 256.86 2184 259.178C2186.07 261.412 2189.71 262.53 2194.92 262.53C2198.4 262.53 2201.91 262.116 2205.47 261.288V284.628C2198.6 286.531 2191.98 287.483 2185.61 287.483C2162.44 287.483 2150.85 274.696 2150.85 249.122V173.021H2128.75V150.675H2150.85V118.025H2181.02ZM2415.17 200.457C2415.17 218.169 2412.2 233.645 2406.24 246.887C2400.28 260.047 2391.84 270.103 2380.91 277.055C2369.99 284.007 2357.24 287.483 2342.67 287.483C2328.44 287.483 2315.82 284.007 2304.81 277.055C2293.8 270.02 2285.24 260.047 2279.11 247.136C2273.07 234.142 2269.97 219.12 2269.8 202.071V189.036C2269.8 171.656 2272.82 156.303 2278.86 142.978C2284.91 129.653 2293.43 119.473 2304.44 112.438C2315.53 105.321 2328.19 101.762 2342.43 101.762C2356.91 101.762 2369.65 105.279 2380.66 112.314C2391.75 119.266 2400.28 129.405 2406.24 142.73C2412.2 155.972 2415.17 171.407 2415.17 189.036V200.457ZM2391.46 188.788C2391.46 167.352 2387.16 150.923 2378.55 139.502C2369.94 127.998 2357.9 122.246 2342.43 122.246C2327.36 122.246 2315.49 127.998 2306.8 139.502C2298.19 150.923 2293.76 166.814 2293.51 187.174V200.457C2293.51 221.231 2297.86 237.577 2306.55 249.495C2315.32 261.33 2327.36 267.247 2342.67 267.247C2358.07 267.247 2369.99 261.661 2378.43 250.488C2386.87 239.232 2391.21 223.134 2391.46 202.195V188.788ZM2448.46 285V168.428H2427.23V150.675H2448.46V136.895C2448.46 122.494 2452.3 111.362 2460 103.5C2467.7 95.6375 2478.58 91.7062 2492.65 91.7062C2497.95 91.7062 2503.2 92.4097 2508.42 93.8167L2507.18 112.438C2503.29 111.694 2499.15 111.321 2494.76 111.321C2487.31 111.321 2481.56 113.514 2477.51 117.901C2473.45 122.204 2471.42 128.412 2471.42 136.523V150.675H2500.1V168.428H2471.42V285H2448.46ZM2526.68 285V168.428H2505.45V150.675H2526.68V136.895C2526.68 122.494 2530.53 111.362 2538.22 103.5C2545.92 95.6375 2556.8 91.7062 2570.87 91.7062C2576.17 91.7062 2581.42 92.4097 2586.64 93.8167L2585.4 112.438C2581.51 111.694 2577.37 111.321 2572.98 111.321C2565.53 111.321 2559.78 113.514 2555.73 117.901C2551.67 122.204 2549.64 128.412 2549.64 136.523V150.675H2578.32V168.428H2549.64V285H2526.68ZM2646.36 287.483C2628.15 287.483 2613.34 281.524 2601.92 269.606C2590.5 257.605 2584.79 241.591 2584.79 221.562V217.341C2584.79 204.016 2587.31 192.14 2592.36 181.711C2597.49 171.2 2604.61 163.007 2613.71 157.131C2622.9 151.172 2632.83 148.192 2643.51 148.192C2660.97 148.192 2674.54 153.944 2684.23 165.448C2693.91 176.952 2698.75 193.422 2698.75 214.858V224.417H2607.75C2608.08 237.659 2611.93 248.377 2619.3 256.571C2626.75 264.682 2636.18 268.737 2647.6 268.737C2655.71 268.737 2662.58 267.082 2668.21 263.771C2673.84 260.461 2678.76 256.074 2682.99 250.612L2697.01 261.537C2685.76 278.834 2668.87 287.483 2646.36 287.483ZM2643.51 167.062C2634.24 167.062 2626.46 170.456 2620.17 177.242C2613.88 183.946 2609.99 193.381 2608.5 205.547H2675.78V203.809C2675.12 192.14 2671.98 183.118 2666.35 176.746C2660.72 170.29 2653.11 167.062 2643.51 167.062ZM2780.2 171.283C2776.72 170.704 2772.96 170.414 2768.9 170.414C2753.84 170.414 2743.62 176.828 2738.24 189.657V285H2715.27V150.675H2737.62L2737.99 166.193C2745.52 154.193 2756.2 148.192 2770.02 148.192C2774.49 148.192 2777.88 148.772 2780.2 149.93V171.283Z" fill="black"/>
<defs>
<linearGradient id="paint0_linear" x1="198" y1="0" x2="198" y2="396" gradientUnits="userSpaceOnUse">
<stop stop-color="#F03127"/>
<stop offset="1" stop-color="#F42762"/>
</linearGradient>
</defs>
</svg>
