<svg xmlns="http://www.w3.org/2000/svg" width="200" height="59" viewBox="0 0 200 59" fill="none"><g clip-path="url(#clip0_1840_5)"><mask id="mask0_1840_5" style="mask-type:luminance" maskUnits="userSpaceOnUse" x="25" y="0" width="48" height="59"><path d="M25 0.00878906H72.1651V58.0784H25V0.00878906Z" fill="white"></path></mask><g mask="url(#mask0_1840_5)"><path fill-rule="evenodd" clip-rule="evenodd" d="M72.1214 35.9832L36.1924 0.00878906L25.0729 11.143L72.1214 58.2536V35.9832Z" fill="#6CCB44"></path></g><mask id="mask1_1840_5" style="mask-type:luminance" maskUnits="userSpaceOnUse" x="8" y="16" width="32" height="43"><path d="M8.00781 16.0156H39.4531V58.078H8.00781V16.0156Z" fill="white"></path></mask><g mask="url(#mask1_1840_5)"><path fill-rule="evenodd" clip-rule="evenodd" d="M39.0451 35.7301L19.8185 16.4658L8.49707 27.6427L19.5916 38.759L39.0451 58.2528V35.7301Z" fill="#6CCB44"></path></g><mask id="mask2_1840_5" style="mask-type:luminance" maskUnits="userSpaceOnUse" x="0" y="27" width="20" height="32"><path d="M0 27.1484H19.7266V58.0776H0V27.1484Z" fill="white"></path></mask><g mask="url(#mask2_1840_5)"><path fill-rule="evenodd" clip-rule="evenodd" d="M8.48665 27.5625L0.0395508 36.0477V58.2533L19.5849 38.7081L8.48665 27.5625Z" fill="#15890B"></path></g><path fill-rule="evenodd" clip-rule="evenodd" d="M19.7692 16.4062L30.8594 27.5646L19.6653 38.8672L8.59375 27.7297L19.7692 16.4062Z" fill="#6CCB44"></path><path fill-rule="evenodd" clip-rule="evenodd" d="M87.9986 14.7021H93.1602V30.152C93.1602 31.3638 92.9096 32.5257 92.4085 33.6417C91.9074 34.7536 91.2225 35.7302 90.3539 36.5735C89.4894 37.4126 88.483 38.081 87.3304 38.5807C86.1778 39.0804 84.9417 39.3303 83.622 39.3303C82.3191 39.3303 81.085 39.0804 79.922 38.5807C78.7569 38.081 77.7463 37.4126 76.8902 36.5735C76.0382 35.7302 75.3617 34.7536 74.8606 33.6417C74.3595 32.5257 74.1089 31.3638 74.1089 30.152V14.7021H79.2789V29.1359C79.2789 29.8147 79.3896 30.456 79.613 31.0598C79.8406 31.6657 80.1496 32.2009 80.5401 32.6673C80.9284 33.1295 81.392 33.4981 81.9265 33.775C82.4611 34.0478 83.0248 34.1831 83.622 34.1831C84.2338 34.1831 84.8018 34.0478 85.3259 33.775C85.8541 33.4981 86.3156 33.1295 86.7123 32.6673C87.1132 32.2009 87.4264 31.6657 87.6561 31.0598C87.8837 30.456 87.9986 29.8147 87.9986 29.1359V14.7021Z" fill="#15890B"></path><path fill-rule="evenodd" clip-rule="evenodd" d="M95.4603 13.8994H100.116V38.8357H95.4603V13.8994Z" fill="#15890B"></path><path fill-rule="evenodd" clip-rule="evenodd" d="M108.737 32.8465C108.737 33.6445 108.983 34.2587 109.476 34.6932C109.967 35.1277 110.613 35.345 111.414 35.345C112.056 35.345 112.7 35.2196 113.344 34.969V38.9381C112.767 39.1219 112.157 39.2744 111.515 39.3976C110.877 39.5251 110.235 39.5898 109.593 39.5898C108.859 39.5898 108.16 39.4979 107.495 39.3141C106.834 39.1303 106.238 38.819 105.707 38.3782C105.181 37.9333 104.763 37.34 104.457 36.5984C104.149 35.8526 103.995 34.9335 103.995 33.8409V26.1701H101.553V22.9865L103.995 21.9587V18.165H108.737V21.9587H113.344V26.1701H108.737V32.8465Z" fill="#15890B"></path><path d="M119.891 38.8357H115.18V21.9474H119.891V38.8357ZM117.536 19.6369C116.808 19.6369 116.196 19.3875 115.696 18.8889C115.197 18.3902 114.947 17.7793 114.947 17.0521C114.947 16.3207 115.197 15.7015 115.696 15.1904C116.196 14.6813 116.808 14.4258 117.536 14.4258C118.262 14.4258 118.876 14.6813 119.375 15.1904C119.875 15.7015 120.124 16.3207 120.124 17.0521C120.124 17.7793 119.875 18.3902 119.375 18.8889C118.876 19.3875 118.262 19.6369 117.536 19.6369Z" fill="#15890B"></path><path fill-rule="evenodd" clip-rule="evenodd" d="M141.551 21.9229C142.168 21.9229 142.83 22.0269 143.537 22.2308C144.242 22.4368 144.898 22.803 145.498 23.3294C146.103 23.8517 146.6 24.5675 146.984 25.4768C147.372 26.3819 147.568 27.5388 147.568 28.9474V38.8351H142.853V29.8047C142.853 29.1222 142.778 28.5438 142.628 28.0652C142.481 27.5887 142.285 27.2038 142.035 26.9083C141.785 26.6087 141.492 26.3985 141.159 26.2758C140.829 26.1488 140.493 26.0843 140.149 26.0843C139.832 26.0843 139.51 26.1426 139.189 26.2591C138.872 26.3715 138.588 26.5629 138.338 26.8334C138.087 27.106 137.887 27.4805 137.737 27.957C137.591 28.4356 137.52 29.0369 137.52 29.7631V38.8351H132.805V29.8047C132.805 28.4189 132.565 27.4535 132.087 26.9083C131.607 26.359 130.912 26.0843 130.001 26.0843C129.337 26.0843 128.745 26.3923 128.223 27.0082C127.699 27.6199 127.438 28.5729 127.438 29.8713V38.8351H122.715V21.9229H126.754L127.438 23.4959C127.96 22.9965 128.569 22.6116 129.266 22.339C129.961 22.0623 130.706 21.9229 131.503 21.9229C131.914 21.9229 132.348 21.9645 132.805 22.0477C133.26 22.1268 133.702 22.2683 134.132 22.4722C134.566 22.6782 134.983 22.9466 135.384 23.2795C135.784 23.6083 136.143 24.0202 136.46 24.5196C136.731 24.0868 137.061 23.7081 137.445 23.3794C137.833 23.0465 138.256 22.7718 138.713 22.5554C139.168 22.339 139.642 22.1809 140.132 22.081C140.62 21.977 141.094 21.9229 141.551 21.9229Z" fill="#15890B"></path><path d="M167.653 21.8765V38.8855H163.607L163.125 37.0691C162.471 37.9626 161.684 38.5569 160.766 38.852C159.846 39.147 158.888 39.2956 157.891 39.2956C156.689 39.2956 155.582 39.0612 154.568 38.5925C153.559 38.1237 152.683 37.4855 151.935 36.6756C151.187 35.8616 150.602 34.9136 150.182 33.8297C149.76 32.7415 149.551 31.5822 149.551 30.3475C149.551 29.115 149.76 27.9577 150.182 26.8737C150.602 25.7856 151.187 24.8376 151.935 24.0278C152.683 23.2137 153.559 22.5713 154.568 22.1025C155.582 21.6338 156.689 21.3994 157.891 21.3994C158.976 21.3994 159.972 21.5731 160.882 21.9184C161.79 22.2595 162.537 22.8057 163.125 23.559L163.607 21.8765H167.653ZM162.959 30.4145C162.959 29.5272 162.839 28.7801 162.602 28.1712C162.363 27.5643 162.045 27.0725 161.646 26.698C161.252 26.3192 160.787 26.0451 160.251 25.8777C159.719 25.7061 159.146 25.6182 158.531 25.6182C157.921 25.6182 157.347 25.7437 156.811 25.9948C156.28 26.246 155.808 26.585 155.399 27.0077C154.994 27.4325 154.679 27.9347 154.452 28.5144C154.224 29.0961 154.112 29.7072 154.112 30.3475C154.112 31.013 154.224 31.6324 154.452 32.2058C154.679 32.775 154.994 33.273 155.399 33.6957C155.808 34.1143 156.28 34.4491 156.811 34.7002C157.347 34.9513 157.921 35.0769 158.531 35.0769C159.761 35.0769 160.799 34.696 161.646 33.9301C162.498 33.1663 162.936 31.9944 162.959 30.4145Z" fill="#15890B"></path><path fill-rule="evenodd" clip-rule="evenodd" d="M176.307 32.8465C176.307 33.6445 176.552 34.2587 177.046 34.6932C177.536 35.1277 178.183 35.345 178.984 35.345C179.626 35.345 180.27 35.2196 180.914 34.969V38.9381C180.337 39.1219 179.727 39.2744 179.085 39.3976C178.447 39.5251 177.805 39.5898 177.163 39.5898C176.429 39.5898 175.73 39.4979 175.065 39.3141C174.404 39.1303 173.808 38.819 173.277 38.3782C172.751 37.9333 172.333 37.34 172.027 36.5984C171.718 35.8526 171.565 34.9335 171.565 33.8409V26.1701H169.123V22.9865L171.565 21.9587V18.165H176.307V21.9587H180.914V26.1701H176.307V32.8465Z" fill="#15890B"></path><path d="M190.696 21.3994C191.973 21.3994 193.136 21.6568 194.187 22.1695C195.241 22.6843 196.145 23.3581 196.899 24.1952C197.652 25.028 198.234 25.9865 198.648 27.0746C199.06 28.1586 199.268 29.2719 199.268 30.4145C199.268 31.1009 199.175 31.8333 198.991 32.6076H186.854C187.31 33.3902 187.961 34.0473 188.804 34.583C189.652 35.1187 190.566 35.3866 191.55 35.3866C192.531 35.3866 193.393 35.3092 194.136 35.1522C194.883 34.9911 195.587 34.7839 196.246 34.5328L197.828 37.4457C196.978 38.0379 196.011 38.4962 194.923 38.8185C193.839 39.1366 192.682 39.2956 191.449 39.2956C190.098 39.2956 188.84 39.0612 187.674 38.5925C186.507 38.1237 185.49 37.4918 184.619 36.6924C183.753 35.8888 183.071 34.9408 182.568 33.8464C182.066 32.7478 181.815 31.5822 181.815 30.3475C181.815 29.138 182.043 27.9912 182.501 26.9072C182.958 25.8191 183.592 24.8711 184.401 24.0612C185.215 23.2472 186.159 22.6006 187.231 22.1193C188.306 21.6401 189.461 21.3994 190.696 21.3994ZM194.572 28.9413C194.298 27.9598 193.806 27.1625 193.098 26.5473C192.389 25.9279 191.588 25.6182 190.696 25.6182C189.78 25.6182 188.951 25.9279 188.21 26.5473C187.467 27.1625 186.959 27.9598 186.687 28.9413H194.572Z" fill="#15890B"></path><path d="M80.5243 43.833C81.5308 43.833 82.421 44.0218 83.1971 44.3953C83.9712 44.7646 84.6166 45.2681 85.1312 45.9059C85.65 46.5395 86.0443 47.2865 86.3099 48.1467C86.5797 49.009 86.7167 49.9237 86.7167 50.891C86.7167 51.8708 86.5756 52.7876 86.2933 53.6436C86.0111 54.4955 85.621 55.2382 85.1229 55.876C84.6249 56.5138 84.0355 57.0153 83.3549 57.3782C82.6742 57.7433 81.9313 57.9237 81.1302 57.9237H74.9047V43.833H80.5243ZM80.5409 55.2046C81.1053 55.2046 81.5868 55.0913 81.9852 54.8605C82.3878 54.6255 82.7198 54.3108 82.9813 53.9122C83.2407 53.5157 83.4316 53.0604 83.5541 52.5443C83.6807 52.0239 83.745 51.4784 83.745 50.9077C83.745 50.3371 83.6869 49.7916 83.5707 49.2712C83.4545 48.7467 83.2635 48.2851 82.9979 47.8865C82.7365 47.49 82.4023 47.1732 81.9935 46.9382C81.5889 46.699 81.1053 46.5773 80.5409 46.5773H77.8929V55.2046H80.5409Z" fill="#4F4C4C"></path><path d="M92.749 47.7812C93.4875 47.7812 94.161 47.9304 94.7715 48.2286C95.38 48.5226 95.9045 48.9078 96.3409 49.3882C96.7773 49.8645 97.1151 50.4133 97.3564 51.0366C97.5955 51.6558 97.7172 52.2915 97.7172 52.9418C97.7172 53.3352 97.6627 53.7535 97.5578 54.2008H90.525C90.7873 54.644 91.1628 55.0188 91.6496 55.3274C92.1405 55.6318 92.6734 55.783 93.2441 55.783C93.8148 55.783 94.3141 55.7395 94.7463 55.6504C95.1764 55.5572 95.5814 55.4392 95.9632 55.2942L96.878 56.9675C96.3912 57.305 95.831 57.5639 95.1995 57.7461C94.5722 57.9283 93.9008 58.0195 93.1854 58.0195C92.4007 58.0195 91.6705 57.8869 90.995 57.6219C90.3236 57.3527 89.7361 56.9903 89.2326 56.5367C88.729 56.0791 88.3283 55.5345 88.0325 54.9049C87.7408 54.2754 87.5961 53.6086 87.5961 52.9004C87.5961 52.2108 87.7262 51.5564 87.9905 50.9372C88.2591 50.3139 88.6283 49.7693 89.0983 49.3054C89.5683 48.8415 90.1138 48.4729 90.7348 48.1954C91.36 47.92 92.0314 47.7812 92.749 47.7812ZM94.9897 52.0969C94.8324 51.5336 94.547 51.078 94.1337 50.7301C93.7246 50.3781 93.263 50.2 92.749 50.2C92.216 50.2 91.7356 50.3781 91.3055 50.7301C90.8733 51.078 90.5795 51.5336 90.4243 52.0969H94.9897Z" fill="#4F4C4C"></path><path d="M104.808 47.9006C105.49 47.9006 106.125 48.0382 106.714 48.3093C107.307 48.5763 107.821 48.9474 108.253 49.4187C108.69 49.8859 109.029 50.4322 109.269 51.0537C109.512 51.6772 109.635 52.3445 109.635 53.0556C109.635 53.7688 109.512 54.4382 109.269 55.0659C109.029 55.6894 108.69 56.2337 108.253 56.7008C107.821 57.168 107.307 57.5392 106.714 57.8103C106.125 58.0772 105.49 58.2107 104.808 58.2107C104.229 58.2107 103.676 58.1106 103.143 57.9104C102.61 57.706 102.194 57.4432 101.895 57.1263L101.495 57.9771H99.173V43.5547H101.895V48.9683C102.644 48.2572 103.613 47.9006 104.808 47.9006ZM104.433 55.7833C104.787 55.7833 105.118 55.7124 105.424 55.5664C105.734 55.4225 106.008 55.2286 106.248 54.9825C106.485 54.7385 106.668 54.4528 106.797 54.1233C106.93 53.7959 106.997 53.4393 106.997 53.0556C106.997 52.6886 106.93 52.3383 106.797 52.0046C106.668 51.6668 106.485 51.3769 106.248 51.1371C106.008 50.8931 105.734 50.6992 105.424 50.5532C105.118 50.4093 104.787 50.3363 104.433 50.3363C104.077 50.3363 103.744 50.3864 103.434 50.4865C103.128 50.5824 102.86 50.7367 102.627 50.9536C102.398 51.1705 102.219 51.4541 102.086 51.8044C101.957 52.1547 101.895 52.5864 101.895 53.0973C101.895 53.5603 101.957 53.9607 102.086 54.2985C102.219 54.6322 102.398 54.9074 102.627 55.1243C102.86 55.3412 103.128 55.5059 103.434 55.6165C103.744 55.7291 104.077 55.7833 104.433 55.7833Z" fill="#4F4C4C"></path><path fill-rule="evenodd" clip-rule="evenodd" d="M114.112 54.479C114.112 54.9397 114.254 55.2925 114.537 55.5415C114.821 55.7905 115.192 55.915 115.655 55.915C116.022 55.915 116.389 55.8445 116.756 55.6992V57.9819C116.427 58.0857 116.076 58.1749 115.705 58.2476C115.338 58.3181 114.971 58.3555 114.604 58.3555C114.181 58.3555 113.778 58.3015 113.395 58.1978C113.015 58.0919 112.673 57.9135 112.369 57.6582C112.068 57.405 111.828 57.0647 111.651 56.6372C111.472 56.2118 111.384 55.6826 111.384 55.0518V50.6523H109.983V48.8262L111.384 48.2285V46.0537H114.112V48.2285H116.756V50.6523H114.112V54.479Z" fill="#4F4C4C"></path><path fill-rule="evenodd" clip-rule="evenodd" d="M122.623 43.833H131.384V46.5773H125.629V49.1202H130.691V51.8645H125.629V57.9237H122.623V43.833Z" fill="#4F4C4C"></path><path fill-rule="evenodd" clip-rule="evenodd" d="M134.794 49.4387C134.922 49.2268 135.073 49.0253 135.247 48.8344C135.419 48.6393 135.625 48.4651 135.86 48.3141C136.099 48.163 136.372 48.0434 136.674 47.9532C136.98 47.8588 137.329 47.8105 137.715 47.8105C138.162 47.8105 138.684 47.8903 139.284 48.0455L139.024 50.4877C138.877 50.4667 138.732 50.4352 138.587 50.3954C138.47 50.3681 138.336 50.345 138.185 50.3282C138.038 50.3073 137.908 50.2947 137.79 50.2947C137.364 50.2947 136.97 50.3534 136.607 50.4709C136.242 50.5884 135.927 50.7542 135.659 50.9661C135.394 51.1801 135.184 51.436 135.029 51.7382C134.872 52.0361 134.794 52.355 134.794 52.6949V57.9233H132.05V48.0623H134.534L134.794 49.4387Z" fill="#4F4C4C"></path><path d="M144.846 47.7812C145.585 47.7812 146.258 47.9304 146.869 48.2286C147.477 48.5226 148.002 48.9078 148.438 49.3882C148.875 49.8645 149.212 50.4133 149.454 51.0366C149.693 51.6558 149.815 52.2915 149.815 52.9418C149.815 53.3352 149.76 53.7535 149.655 54.2008H142.622C142.885 54.644 143.26 55.0188 143.747 55.3274C144.238 55.6318 144.771 55.783 145.341 55.783C145.912 55.783 146.411 55.7395 146.844 55.6504C147.274 55.5572 147.679 55.4392 148.061 55.2942L148.975 56.9675C148.489 57.305 147.928 57.5639 147.297 57.7461C146.669 57.9283 145.998 58.0195 145.283 58.0195C144.498 58.0195 143.768 57.8869 143.092 57.6219C142.421 57.3527 141.833 56.9903 141.33 56.5367C140.826 56.0791 140.426 55.5345 140.13 54.9049C139.838 54.2754 139.693 53.6086 139.693 52.9004C139.693 52.2108 139.823 51.5564 140.088 50.9372C140.356 50.3139 140.726 49.7693 141.196 49.3054C141.666 48.8415 142.211 48.4729 142.832 48.1954C143.457 47.92 144.129 47.7812 144.846 47.7812ZM147.087 52.0969C146.93 51.5336 146.644 51.078 146.231 50.7301C145.822 50.3781 145.36 50.2 144.846 50.2C144.313 50.2 143.833 50.3781 143.403 50.7301C142.971 51.078 142.677 51.5336 142.522 52.0969H147.087Z" fill="#4F4C4C"></path><path d="M156.126 47.7812C156.864 47.7812 157.538 47.9304 158.148 48.2286C158.757 48.5226 159.281 48.9078 159.717 49.3882C160.154 49.8645 160.492 50.4133 160.733 51.0366C160.972 51.6558 161.094 52.2915 161.094 52.9418C161.094 53.3352 161.039 53.7535 160.934 54.2008H153.902C154.164 54.644 154.539 55.0188 155.026 55.3274C155.517 55.6318 156.05 55.783 156.621 55.783C157.191 55.783 157.691 55.7395 158.123 55.6504C158.553 55.5572 158.958 55.4392 159.34 55.2942L160.255 56.9675C159.768 57.305 159.208 57.5639 158.576 57.7461C157.949 57.9283 157.277 58.0195 156.562 58.0195C155.777 58.0195 155.047 57.8869 154.372 57.6219C153.7 57.3527 153.113 56.9903 152.609 56.5367C152.106 56.0791 151.705 55.5345 151.409 54.9049C151.117 54.2754 150.973 53.6086 150.973 52.9004C150.973 52.2108 151.103 51.5564 151.367 50.9372C151.636 50.3139 152.005 49.7693 152.475 49.3054C152.945 48.8415 153.49 48.4729 154.111 48.1954C154.737 47.92 155.408 47.7812 156.126 47.7812ZM158.366 52.0969C158.209 51.5336 157.924 51.078 157.51 50.7301C157.101 50.3781 156.64 50.2 156.126 50.2C155.593 50.2 155.112 50.3781 154.682 50.7301C154.25 51.078 153.956 51.5336 153.801 52.0969H158.366Z" fill="#4F4C4C"></path><path d="M172.383 43.5547V57.9771H170.053L169.662 57.1263C169.356 57.4432 168.938 57.706 168.405 57.9104C167.876 58.1106 167.323 58.2107 166.74 58.2107C166.045 58.2107 165.402 58.0772 164.809 57.8103C164.221 57.5392 163.713 57.168 163.286 56.7008C162.858 56.2337 162.523 55.6894 162.279 55.0659C162.034 54.4382 161.913 53.7688 161.913 53.0556C161.913 52.3445 162.034 51.6772 162.279 51.0537C162.523 50.4322 162.858 49.8859 163.286 49.4187C163.713 48.9474 164.221 48.5763 164.809 48.3093C165.402 48.0382 166.045 47.9006 166.74 47.9006C167.36 47.9006 167.91 47.9736 168.388 48.1175C168.865 48.2634 169.289 48.5074 169.662 48.8515V43.5547H172.383ZM169.662 53.0973C169.662 52.5864 169.595 52.1547 169.462 51.8044C169.329 51.4541 169.141 51.1705 168.904 50.9536C168.671 50.7367 168.399 50.5824 168.089 50.4865C167.783 50.3864 167.452 50.3363 167.098 50.3363C166.742 50.3363 166.409 50.4093 166.099 50.5532C165.794 50.6992 165.525 50.8931 165.292 51.1371C165.063 51.3769 164.884 51.6668 164.751 52.0046C164.618 52.3383 164.551 52.6886 164.551 53.0556C164.551 53.4393 164.618 53.7959 164.751 54.1233C164.884 54.4528 165.063 54.7385 165.292 54.9825C165.525 55.2286 165.794 55.4225 166.099 55.5664C166.409 55.7124 166.742 55.7833 167.098 55.7833C167.808 55.7833 168.407 55.5643 168.896 55.1243C169.389 54.6801 169.645 54.0045 169.662 53.0973Z" fill="#4F4C4C"></path><path d="M178.734 47.7812C179.43 47.7812 180.084 47.9179 180.697 48.1871C181.31 48.4522 181.844 48.8208 182.304 49.2888C182.762 49.7527 183.124 50.2952 183.389 50.9124C183.659 51.5315 183.795 52.1942 183.795 52.9004C183.795 53.6086 183.659 54.2733 183.389 54.8966C183.124 55.5158 182.762 56.0563 182.304 56.5202C181.844 56.984 181.31 57.3527 180.697 57.6219C180.084 57.8869 179.43 58.0195 178.734 58.0195C178.026 58.0195 177.367 57.8869 176.754 57.6219C176.141 57.3527 175.605 56.984 175.147 56.5202C174.688 56.0563 174.323 55.5158 174.054 54.8966C173.789 54.2733 173.656 53.6086 173.656 52.9004C173.656 52.1942 173.789 51.5315 174.054 50.9124C174.323 50.2952 174.688 49.7527 175.147 49.2888C175.605 48.8208 176.141 48.4522 176.754 48.1871C177.367 47.9179 178.026 47.7812 178.734 47.7812ZM178.734 55.6504C179.065 55.6504 179.368 55.5883 179.645 55.4599C179.927 55.3274 180.175 55.1493 180.391 54.9215C180.61 54.6896 180.782 54.4141 180.904 54.0932C181.031 53.7742 181.095 53.4181 181.095 53.0246C181.095 52.6332 181.031 52.2667 180.904 51.9229C180.782 51.5812 180.61 51.283 180.391 51.0283C180.175 50.7757 179.927 50.5727 179.645 50.4236C179.368 50.2745 179.065 50.2 178.734 50.2C178.407 50.2 178.1 50.2745 177.815 50.4236C177.527 50.5727 177.276 50.7757 177.061 51.0283C176.845 51.283 176.674 51.5812 176.547 51.9229C176.425 52.2667 176.365 52.6332 176.365 53.0246C176.365 53.4181 176.425 53.7742 176.547 54.0932C176.674 54.4141 176.845 54.6896 177.061 54.9215C177.276 55.1493 177.527 55.3274 177.815 55.4599C178.1 55.5883 178.407 55.6504 178.734 55.6504Z" fill="#4F4C4C"></path><path fill-rule="evenodd" clip-rule="evenodd" d="M195.633 48.0625C195.986 48.0625 196.366 48.1254 196.772 48.2471C197.175 48.3646 197.553 48.5786 197.902 48.8849C198.251 49.1871 198.536 49.6046 198.759 50.1354C198.979 50.662 199.091 51.3355 199.091 52.158V57.9235H196.381V52.6531C196.381 52.2566 196.335 51.9209 196.248 51.646C196.165 51.367 196.05 51.1404 195.907 50.9662C195.762 50.7942 195.593 50.6704 195.4 50.597C195.211 50.5256 195.02 50.4879 194.826 50.4879C194.637 50.4879 194.452 50.5215 194.269 50.5886C194.086 50.6557 193.922 50.7711 193.779 50.9327C193.633 51.09 193.517 51.3082 193.43 51.5873C193.347 51.8621 193.305 52.2125 193.305 52.6363V57.9235H190.586V52.6531C190.586 51.8474 190.447 51.2852 190.171 50.9662C189.899 50.6473 189.499 50.4879 188.974 50.4879C188.595 50.4879 188.255 50.6683 187.951 51.025C187.652 51.3838 187.502 51.9398 187.502 52.6951V57.9235H184.784V48.0625H187.103L187.502 48.9773C187.801 48.6877 188.151 48.4632 188.55 48.3059C188.953 48.1443 189.385 48.0625 189.847 48.0625C190.079 48.0625 190.325 48.0877 190.586 48.138C190.852 48.1842 191.11 48.2681 191.36 48.3898C191.609 48.5073 191.846 48.6626 192.075 48.8514C192.307 49.0423 192.515 49.2836 192.698 49.5731C192.852 49.3214 193.041 49.1011 193.263 48.9101C193.49 48.7213 193.733 48.5639 193.995 48.4402C194.261 48.3122 194.531 48.2178 194.81 48.1548C195.092 48.094 195.367 48.0625 195.633 48.0625Z" fill="#4F4C4C"></path></g><defs><clipPath id="clip0_1840_5"><rect width="200" height="58.2031" fill="white"></rect></clipPath></defs></svg>