<svg style="display:none"><defs><svg id="op3-icons-button-circle-play-2" xmlns="http://www.w3.org/2000/svg" viewBox="0 0 32 32"><path fill="currentColor" d="M16 0C7.178 0 0 7.178 0 16s7.178 16 16 16 16-7.178 16-16S24.822 0 16 0zm-3.967 8c.176.006.35.059.504.156l11 7a1.001 1.001 0 010 1.688l-11 7a1.01 1.01 0 01-1.017.033A1.002 1.002 0 0111 23V9a1.002 1.002 0 011.033-1z"/></svg><svg id="op3-icons-check-2-2" xmlns="http://www.w3.org/2000/svg" viewBox="0 0 32 32"><path fill="currentColor" d="M28.586 5.586L12 22.172l-8.586-8.586-2.828 2.828L12 27.828 31.414 8.414l-2.828-2.828z"/></svg><svg id="op3-icons-image-02-2-2" xmlns="http://www.w3.org/2000/svg" viewBox="0 0 32 32"><path fill="currentColor" d="M1 0C.4 0 0 .4 0 1v30c0 .6.4 1 1 1h30c.6 0 1-.4 1-1V1c0-.6-.4-1-1-1H1zm13 7c1.7 0 3 1.3 3 3s-1.3 3-3 3-3-1.3-3-3 1.3-3 3-3zm6.1 7c.3 0 .6.2.8.4l6.9 9.9c.2.2.3.4.3.7-.1.6-.5 1-1.1 1H5c-.4 0-.7-.2-.9-.5s-.1-.7.1-1l5-7c.1-.3.4-.5.7-.5.3 0 .5 0 .8.2l4.2 3.3 4.4-6.1c.2-.3.5-.4.8-.4z"/></svg><svg id="op3-icons-leaf-81-1" xmlns="http://www.w3.org/2000/svg" viewBox="0 0 32 32"><path fill="currentColor" d="M31.27.775l-1.434.239s-3.832.633-8.412 2.015c-4.579 1.383-9.929 3.463-13.13 6.664C4.58 13.405 3.906 17.508 4.23 20.58c.218 2.07.854 3.659 1.258 4.518L.586 30 2 31.414l4.91-4.91c.865.394 2.47 1.02 4.553 1.229 3.08.309 7.179-.36 10.844-4.026l.4-.4-1.099-4.397 3.387 1.102.392-.748C28.91 12.529 30.981 2.2 30.981 2.2l.29-1.424zm-2.637 2.578c-.45 2.038-2.036 8.771-4.691 14.213l-5.15-1.675 1.683 6.734c-3.104 2.874-6.281 3.371-8.812 3.117a12.09 12.09 0 01-3.229-.761l5.98-5.98L13 17.585 7.006 23.58a11.686 11.686 0 01-.787-3.209c-.276-2.627.2-5.976 3.489-9.264 2.698-2.698 7.849-4.82 12.295-6.162 3.611-1.09 5.583-1.4 6.63-1.592z"/></svg><svg id="op3-icons-rain-2" xmlns="http://www.w3.org/2000/svg" viewBox="0 0 32 32"><path fill="currentColor" d="M30 2a.996.996 0 00-.707.293l-15 15a.999.999 0 101.414 1.414l15-15A.999.999 0 0030 2zM17 5a.996.996 0 00-.707.293l-15 15a.999.999 0 101.414 1.414l15-15A.999.999 0 0017 5zm13 7a.996.996 0 00-.707.293l-15 15a.999.999 0 101.414 1.414l15-15A.999.999 0 0030 12z"/></svg><svg id="op3-icons-small-right" xmlns="http://www.w3.org/2000/svg" viewBox="0 0 32 32"><path fill="currentColor" d="M13 8.586L11.586 10l6 6-6 6L13 23.414 20.414 16 13 8.586z"/></svg></defs></svg>