<?xml version="1.0" encoding="utf-8"?>
<!-- Generator: Adobe Illustrator 23.0.6, SVG Export Plug-In . SVG Version: 6.00 Build 0)  -->
<svg version="1.1" id="Layer_1" xmlns="http://www.w3.org/2000/svg" xmlns:xlink="http://www.w3.org/1999/xlink" x="0px" y="0px"
	 viewBox="0 0 700 150" style="enable-background:new 0 0 700 150;" xml:space="preserve">
<style type="text/css">
	.st0{fill:#222C4F;}
</style>
<g>
	<path class="st0" d="M88.4,91.7H70.1L65.4,79H33.1l-4.7,12.8H10.1l29.2-75.4h20.1L88.4,91.7z M61,64.9L49.3,32.4L37.5,64.9H61z"/>
	<path class="st0" d="M144.6,91.7h-14.4v-6.9c-4.9,5.5-11.3,8.2-19.2,8.2c-5.9,0-10.3-1.5-13.2-4.5c-2.9-3-4.4-7.2-4.4-12.7V37.2
		h14.4v33.1c0,6.7,3.4,10.1,10.1,10.1c5,0,9.2-2.1,12.4-6.2v-37h14.4V91.7z"/>
	<path class="st0" d="M177.2,93.1c-5,0-8.9-1.3-11.5-3.8c-2.6-2.6-4-6.3-4-11.1V49.7h-9V37.2h9V22.3h14.5v14.9h11.1v12.5h-11.1v24.6
		c0,1.7,0.5,3.2,1.4,4.3c0.9,1.1,2.1,1.7,3.6,1.7c2.3,0,3.9-0.5,5-1.6l3.1,10.8C186.5,91.9,182.5,93.1,177.2,93.1z"/>
	<path class="st0" d="M290.3,70.5h-27.1V58.3h27.1V70.5z"/>
	<path class="st0" d="M327.9,93.1c-13.4,0-24-4-31.9-12l8.7-12.2c6.5,6.8,14.5,10.2,24,10.2c4.1,0,7.4-0.8,9.7-2.4
		c2.3-1.6,3.4-3.6,3.4-5.9c0-2-1.1-3.7-3.2-5.1s-4.8-2.3-8-2.9c-3.2-0.6-6.7-1.5-10.5-2.6c-3.8-1.1-7.3-2.4-10.5-3.8
		c-3.2-1.4-5.9-3.7-8-6.8c-2.1-3.1-3.2-6.9-3.2-11.3c0-6.5,2.6-11.9,7.8-16.3c5.2-4.4,12.1-6.6,20.8-6.6c12,0,21.8,3.5,29.4,10.5
		l-8.9,11.8c-6-5.5-13.3-8.2-21.9-8.2c-3.4,0-6,0.7-7.9,2c-1.9,1.4-2.8,3.2-2.8,5.5c0,1.8,1.1,3.3,3.2,4.6c2.1,1.2,4.8,2.2,8,2.8
		c3.2,0.6,6.7,1.5,10.4,2.7c3.7,1.2,7.2,2.5,10.4,4c3.2,1.5,5.9,3.8,8,6.9c2.1,3.1,3.2,6.9,3.2,11.2c0,7.2-2.6,13.1-7.7,17.5
		C345.2,90.9,337.7,93.1,327.9,93.1z"/>
	<path class="st0" d="M415.7,91.7h-14.4v-5.7c-3.9,4.7-9.7,7-17.3,7c-4.9,0-9.3-1.6-13.2-4.8c-3.9-3.2-5.8-7.6-5.8-13.3
		c0-5.9,1.9-10.3,5.7-13.2c3.8-2.9,8.2-4.4,13.3-4.4c7.8,0,13.5,2.2,17.3,6.7v-7.3c0-2.8-1.1-5-3.3-6.7c-2.2-1.7-5.1-2.5-8.7-2.5
		c-6,0-11.3,2.1-15.9,6.4l-5.4-9.6c6.5-5.7,14.4-8.6,23.8-8.6c7,0,12.7,1.6,17.2,4.9c4.4,3.2,6.7,8.5,6.7,15.8V91.7z M389.8,83.4
		c5.3,0,9.2-1.6,11.5-4.7v-6.8c-2.3-3.2-6.2-4.7-11.5-4.7c-2.9,0-5.4,0.7-7.3,2.2c-2,1.5-2.9,3.5-2.9,6c0,2.5,1,4.4,2.9,5.9
		C384.5,82.7,386.9,83.4,389.8,83.4z"/>
	<path class="st0" d="M459.6,91.7h-15.5l-21.9-54.6h15.4l14.2,38l14.2-38h15.5L459.6,91.7z"/>
	<path class="st0" d="M495,31.3c-2.3,0-4.4-0.8-6-2.5s-2.5-3.7-2.5-6c0-2.3,0.8-4.3,2.5-6c1.7-1.7,3.7-2.5,6-2.5
		c2.4,0,4.4,0.8,6.1,2.5c1.7,1.7,2.5,3.7,2.5,6c0,2.3-0.8,4.4-2.5,6C499.5,30.4,497.5,31.3,495,31.3z M502.3,91.7h-14.4V37.2h14.4
		V91.7z"/>
	<path class="st0" d="M567.7,91.7h-14.4v-33c0-6.8-3.4-10.2-10.1-10.2c-5.2,0-9.3,2.1-12.4,6.4v36.7h-14.4V37.2h14.4v7.1
		c4.7-5.6,11.1-8.5,19.1-8.5c5.9,0,10.3,1.5,13.3,4.6c3,3.1,4.5,7.3,4.5,12.8V91.7z"/>
	<path class="st0" d="M604.3,113.9c-9.4,0-17.3-2.7-23.5-8.1l6.4-10.4c4.1,4.5,9.8,6.8,17.1,6.8c4.1,0,7.6-1.1,10.6-3.2
		c3-2.1,4.5-5.7,4.5-10.6v-5.5c-4.5,5.7-10.1,8.6-16.8,8.6c-7.1,0-12.9-2.4-17.3-7.3c-4.5-4.9-6.7-11.7-6.7-20.5
		c0-8.7,2.2-15.6,6.7-20.5c4.5-4.9,10.3-7.3,17.3-7.3c6.8,0,12.4,2.8,16.8,8.4v-7h14.5V88c0,5-0.9,9.2-2.7,12.8
		c-1.8,3.5-4.2,6.2-7.2,8c-3,1.8-6.1,3.1-9.3,3.9C611.4,113.5,608,113.9,604.3,113.9z M607,78.6c2.3,0,4.7-0.6,7-1.8
		c2.3-1.2,4.1-2.7,5.3-4.4V54.8c-1.2-1.8-3-3.3-5.3-4.5c-2.3-1.2-4.7-1.8-7.1-1.8c-4.1,0-7.5,1.4-10,4.1c-2.5,2.7-3.8,6.4-3.8,11
		c0,4.6,1.3,8.2,3.8,11C599.5,77.3,602.9,78.6,607,78.6z"/>
	<path class="st0" d="M667.7,93.1c-4.7,0-9.3-0.8-13.6-2.3c-4.3-1.5-7.9-3.6-10.8-6.2l6.2-10.1c2.1,2,5,3.7,8.6,5.2
		c3.6,1.5,7,2.3,10.3,2.3c3,0,5.3-0.5,6.8-1.6c1.5-1.1,2.3-2.5,2.3-4.3c0-1.4-0.8-2.5-2.4-3.3c-1.6-0.9-3.6-1.5-6-1.9
		c-2.4-0.4-5-0.9-7.8-1.7c-2.8-0.8-5.4-1.7-7.8-2.7c-2.4-1.1-4.4-2.7-6-5c-1.6-2.3-2.4-5.1-2.4-8.5c0-4.8,2-8.9,6-12.2
		c4-3.3,9.5-5,16.4-5c8.4,0,15.8,2.5,22,7.5l-5.8,9.8c-1.7-1.8-4.1-3.3-6.9-4.5c-2.9-1.2-6-1.8-9.2-1.8c-2.6,0-4.6,0.5-6.2,1.5
		c-1.6,1-2.4,2.3-2.4,3.9c0,1.2,0.8,2.2,2.4,3s3.6,1.4,6,1.8c2.4,0.4,5,1,7.8,1.8c2.8,0.8,5.4,1.7,7.8,2.8c2.4,1.1,4.4,2.8,6,5.3
		c1.6,2.4,2.4,5.4,2.4,8.8c0,5.1-2.1,9.3-6.3,12.6C680.9,91.5,675.1,93.1,667.7,93.1z"/>
</g>
<title>Group 11</title>
<desc>Created with Sketch.</desc>
<g id="Page-1">
	<g id="Artboard-Copy-4" transform="translate(-114.000000, -37.000000)">
		<g id="Group-11" transform="translate(114.000000, 37.000000)">
			<path id="Combined-Shape" class="st0" d="M244.7,84.7c-5.3,5.6-12.3,8.3-21.1,8.3c-8.8,0-15.8-2.8-21-8.3
				c-5.3-5.6-7.9-12.4-7.9-20.5c0-8.1,2.6-14.9,7.9-20.4c5.3-5.5,12.3-8.3,21-8.3c8.8,0,15.8,2.8,21.1,8.3
				c5.3,5.5,7.9,12.3,7.9,20.4C252.6,72.3,250,79.1,244.7,84.7z M215.4,68.6c-0.4-0.9-0.6-1.8-0.7-2.8c-3-1.8-8.9-3.9-9.7-4.2
				c-0.3,1.3-0.5,2.7-0.5,4.1c0,4.3,1.6,8.2,4.1,11.2C209.3,76.2,213.6,71.6,215.4,68.6z M217.3,58.2c0.7-0.8,1.6-1.5,2.7-2
				c0.7-3.7,0.5-10.7,0.5-10.7c-5.8,0.6-10.8,4.4-13.2,9.5C208,55.4,213.9,57.7,217.3,58.2z M233.9,80.6c-0.7-0.8-4.8-5.5-7.5-7.5
				c-0.8,0.3-1.7,0.5-2.6,0.5c-0.9,0-1.8-0.2-2.5-0.5c-2.8,2.1-6.9,6.8-7.5,7.5c2.8,2.1,6.3,3.4,10.1,3.4
				C227.6,84.1,231.1,82.8,233.9,80.6z M226.8,45.5c0,0-0.2,6.9,0.5,10.7c1.1,0.4,2.1,1.1,2.9,2c3.2-0.5,8.8-2.6,10.1-3.1
				C237.7,49.9,232.7,46.1,226.8,45.5L226.8,45.5z M242.9,65.8c0-1.4-0.2-2.7-0.5-4c-1.4,0.5-7,2.6-9.7,4.3c0,0.9-0.3,1.8-0.6,2.6
				c1.7,2.9,6,7.5,6.8,8.3C241.4,74,242.9,70.1,242.9,65.8z M227.8,64.4c0-2.4-1.9-4.3-4.3-4.3c-2.4,0-4.3,1.9-4.3,4.3
				c0,2.4,1.9,4.3,4.3,4.3C225.8,68.7,227.8,66.7,227.8,64.4z"/>
		</g>
	</g>
</g>
<g>
	<path class="st0" d="M28.8,130.1h-3l-1.9-4.7H13.2l-1.9,4.7h-3l8.6-21.3h3.3L28.8,130.1z M23,123l-4.5-11.5L14,123H23z"/>
	<path class="st0" d="M49.6,128.1c-1.5,1.5-3.6,2.3-6.5,2.3c-2.8,0-5-0.8-6.5-2.3c-1.5-1.5-2.2-3.7-2.2-6.4v-13.1h2.7v13
		c0,2,0.5,3.5,1.6,4.7c1,1.1,2.5,1.7,4.5,1.7c1.9,0,3.4-0.6,4.5-1.7c1-1.1,1.6-2.7,1.6-4.7v-13h2.7v13
		C51.8,124.4,51.1,126.6,49.6,128.1z"/>
	<path class="st0" d="M68.4,130.1h-2.7v-19H59v-2.4h16.2v2.4h-6.8V130.1z"/>
	<path class="st0" d="M91.3,130.4c-3.1,0-5.7-1-7.6-3.1c-2-2.1-2.9-4.7-2.9-7.9s1-5.8,2.9-7.9c2-2.1,4.5-3.1,7.6-3.1
		c3.1,0,5.7,1,7.6,3.1c2,2.1,3,4.7,3,7.9s-1,5.8-3,7.9C96.9,129.4,94.4,130.4,91.3,130.4z M91.3,128.1c2.3,0,4.2-0.8,5.7-2.4
		c1.4-1.6,2.2-3.7,2.2-6.2c0-2.5-0.7-4.6-2.2-6.2c-1.4-1.6-3.3-2.4-5.7-2.4c-2.4,0-4.3,0.8-5.7,2.4c-1.4,1.6-2.1,3.7-2.1,6.2
		c0,2.5,0.7,4.6,2.1,6.2C87,127.3,88.9,128.1,91.3,128.1z"/>
	<path class="st0" d="M124.3,130.1h-2.7v-21.3h2.7V130.1z"/>
	<path class="st0" d="M150.6,130.1h-2.6l-12.4-17v17H133v-21.3h2.7l12.3,16.7v-16.7h2.7V130.1z"/>
	<path class="st0" d="M166.2,130.4c-3.5,0-6.2-1.1-8.2-3.4l1.6-2c1.8,2,4.1,3,6.7,3c1.7,0,3-0.4,3.8-1.1c0.8-0.7,1.2-1.6,1.2-2.6
		c0-0.7-0.2-1.4-0.7-1.9c-0.5-0.5-1.1-0.9-1.8-1.2c-0.7-0.3-1.6-0.5-2.5-0.8c-0.9-0.2-1.8-0.5-2.7-0.8s-1.7-0.6-2.4-1
		c-0.7-0.4-1.3-1-1.8-1.7s-0.7-1.6-0.7-2.7c0-1.7,0.7-3.2,2.1-4.3c1.4-1.1,3.1-1.6,5.2-1.6c3.2,0,5.7,1,7.6,3l-1.6,2
		c-1.6-1.7-3.6-2.6-6.2-2.6c-1.3,0-2.3,0.3-3.2,0.9c-0.8,0.6-1.2,1.4-1.2,2.4c0,0.7,0.3,1.4,0.9,1.9c0.6,0.5,1.4,0.9,2.3,1.1
		c0.9,0.2,1.9,0.5,3,0.9c1.1,0.4,2.1,0.7,3,1.1s1.7,1,2.3,1.9c0.6,0.9,0.9,1.9,0.9,3.2c0,1.8-0.6,3.2-1.9,4.4
		C170.9,129.8,168.9,130.4,166.2,130.4z"/>
	<path class="st0" d="M196.9,128.1c-1.5,1.5-3.6,2.3-6.5,2.3c-2.8,0-5-0.8-6.5-2.3c-1.5-1.5-2.2-3.7-2.2-6.4v-13.1h2.7v13
		c0,2,0.5,3.5,1.6,4.7c1,1.1,2.5,1.7,4.5,1.7c1.9,0,3.4-0.6,4.5-1.7c1-1.1,1.6-2.7,1.6-4.7v-13h2.7v13
		C199.1,124.4,198.4,126.6,196.9,128.1z"/>
	<path class="st0" d="M223.3,130.1h-3.1l-5.4-8.5h-4.3v8.5h-2.7v-21.3h8.6c2,0,3.6,0.6,4.8,1.8s1.9,2.7,1.9,4.7
		c0,1.8-0.5,3.3-1.6,4.4c-1.1,1.1-2.4,1.7-3.9,1.8L223.3,130.1z M216.1,119.2c1.3,0,2.3-0.4,3.1-1.2c0.8-0.8,1.2-1.7,1.2-2.9
		c0-1.2-0.4-2.2-1.2-2.9c-0.8-0.8-1.8-1.1-3.1-1.1h-5.6v8.2H216.1z"/>
	<path class="st0" d="M249.2,130.1h-3l-1.9-4.7h-10.6l-1.9,4.7h-3l8.6-21.3h3.3L249.2,130.1z M243.5,123l-4.5-11.5l-4.5,11.5H243.5z
		"/>
	<path class="st0" d="M273.3,130.1h-2.6l-12.4-17v17h-2.7v-21.3h2.7l12.3,16.7v-16.7h2.7V130.1z"/>
	<path class="st0" d="M292.1,130.4c-3.1,0-5.7-1-7.8-3.1c-2.1-2.1-3.2-4.7-3.2-8c0-3.2,1.1-5.9,3.2-8c2.1-2.1,4.7-3.1,7.8-3.1
		c3.4,0,6.1,1.4,8.1,4.2l-2.2,1.2c-0.6-0.9-1.5-1.7-2.5-2.2c-1-0.6-2.2-0.9-3.4-0.9c-2.3,0-4.3,0.8-5.9,2.4
		c-1.6,1.6-2.4,3.7-2.4,6.2c0,2.5,0.8,4.6,2.4,6.2c1.6,1.6,3.5,2.4,5.9,2.4c1.2,0,2.3-0.3,3.4-0.8s1.9-1.3,2.5-2.3l2.3,1.2
		C298.2,129,295.5,130.4,292.1,130.4z"/>
	<path class="st0" d="M321.3,130.1h-14v-21.3h14v2.4H310v6.9h11.1v2.4H310v7.4h11.3V130.1z"/>
	<path class="st0" d="M348.1,130.4c-3.5,0-6.2-1.1-8.2-3.4l1.6-2c1.8,2,4.1,3,6.7,3c1.7,0,3-0.4,3.8-1.1c0.8-0.7,1.2-1.6,1.2-2.6
		c0-0.7-0.2-1.4-0.7-1.9c-0.5-0.5-1.1-0.9-1.8-1.2c-0.7-0.3-1.6-0.5-2.5-0.8c-0.9-0.2-1.8-0.5-2.7-0.8s-1.7-0.6-2.4-1
		c-0.7-0.4-1.3-1-1.8-1.7s-0.7-1.6-0.7-2.7c0-1.7,0.7-3.2,2.1-4.3c1.4-1.1,3.1-1.6,5.2-1.6c3.2,0,5.7,1,7.6,3l-1.6,2
		c-1.6-1.7-3.6-2.6-6.2-2.6c-1.3,0-2.3,0.3-3.2,0.9c-0.8,0.6-1.2,1.4-1.2,2.4c0,0.7,0.3,1.4,0.9,1.9c0.6,0.5,1.4,0.9,2.3,1.1
		c0.9,0.2,1.9,0.5,3,0.9c1.1,0.4,2.1,0.7,3,1.1c0.9,0.4,1.7,1,2.3,1.9c0.6,0.9,0.9,1.9,0.9,3.2c0,1.8-0.6,3.2-1.9,4.4
		C352.7,129.8,350.7,130.4,348.1,130.4z"/>
	<path class="st0" d="M378.8,128.1c-1.5,1.5-3.6,2.3-6.5,2.3c-2.8,0-5-0.8-6.5-2.3c-1.5-1.5-2.2-3.7-2.2-6.4v-13.1h2.7v13
		c0,2,0.5,3.5,1.6,4.7c1,1.1,2.5,1.7,4.5,1.7s3.4-0.6,4.5-1.7c1-1.1,1.6-2.7,1.6-4.7v-13h2.7v13C381,124.4,380.2,126.6,378.8,128.1z
		"/>
	<path class="st0" d="M392.3,130.1h-2.7v-21.3h8.6c2.1,0,3.7,0.6,4.9,1.9c1.2,1.2,1.8,2.8,1.8,4.6s-0.6,3.3-1.8,4.6
		s-2.8,1.9-4.9,1.9h-5.9V130.1z M397.9,119.2c1.3,0,2.3-0.4,3.1-1.1c0.8-0.8,1.2-1.7,1.2-2.9c0-1.2-0.4-2.2-1.2-2.9
		c-0.8-0.8-1.8-1.1-3.1-1.1h-5.6v8.1H397.9z"/>
	<path class="st0" d="M426.1,130.1h-14v-21.3h14v2.4h-11.3v6.9h11.1v2.4h-11.1v7.4h11.3V130.1z"/>
	<path class="st0" d="M449.5,130.1h-3.1l-5.4-8.5h-4.3v8.5H434v-21.3h8.6c2,0,3.6,0.6,4.8,1.8s1.9,2.7,1.9,4.7
		c0,1.8-0.5,3.3-1.6,4.4c-1.1,1.1-2.4,1.7-3.9,1.8L449.5,130.1z M442.3,119.2c1.3,0,2.3-0.4,3.1-1.2c0.8-0.8,1.2-1.7,1.2-2.9
		c0-1.2-0.4-2.2-1.2-2.9c-0.8-0.8-1.8-1.1-3.1-1.1h-5.6v8.2H442.3z"/>
	<path class="st0" d="M464.1,130.4c-3.5,0-6.2-1.1-8.2-3.4l1.6-2c1.8,2,4.1,3,6.7,3c1.7,0,3-0.4,3.8-1.1c0.8-0.7,1.2-1.6,1.2-2.6
		c0-0.7-0.2-1.4-0.7-1.9c-0.5-0.5-1.1-0.9-1.8-1.2s-1.6-0.5-2.5-0.8c-0.9-0.2-1.8-0.5-2.7-0.8s-1.7-0.6-2.4-1
		c-0.7-0.4-1.3-1-1.8-1.7c-0.5-0.7-0.7-1.6-0.7-2.7c0-1.7,0.7-3.2,2.1-4.3c1.4-1.1,3.1-1.6,5.2-1.6c3.2,0,5.7,1,7.6,3l-1.6,2
		c-1.6-1.7-3.6-2.6-6.2-2.6c-1.3,0-2.3,0.3-3.2,0.9c-0.8,0.6-1.2,1.4-1.2,2.4c0,0.7,0.3,1.4,0.9,1.9c0.6,0.5,1.4,0.9,2.3,1.1
		s1.9,0.5,3,0.9c1.1,0.4,2.1,0.7,3,1.1s1.7,1,2.3,1.9c0.6,0.9,0.9,1.9,0.9,3.2c0,1.8-0.6,3.2-1.9,4.4S466.7,130.4,464.1,130.4z"/>
	<path class="st0" d="M487.3,130.1h-2.7v-19h-6.8v-2.4h16.2v2.4h-6.8V130.1z"/>
	<path class="st0" d="M510.2,130.4c-3.1,0-5.7-1-7.6-3.1c-2-2.1-2.9-4.7-2.9-7.9s1-5.8,2.9-7.9c2-2.1,4.5-3.1,7.6-3.1
		c3.1,0,5.7,1,7.6,3.1c2,2.1,3,4.7,3,7.9s-1,5.8-3,7.9C515.8,129.4,513.3,130.4,510.2,130.4z M510.2,128.1c2.3,0,4.2-0.8,5.7-2.4
		c1.4-1.6,2.2-3.7,2.2-6.2c0-2.5-0.7-4.6-2.2-6.2c-1.4-1.6-3.3-2.4-5.7-2.4c-2.4,0-4.3,0.8-5.7,2.4c-1.4,1.6-2.1,3.7-2.1,6.2
		c0,2.5,0.7,4.6,2.1,6.2C505.9,127.3,507.8,128.1,510.2,128.1z"/>
	<path class="st0" d="M544.1,130.1H541l-5.4-8.5h-4.3v8.5h-2.7v-21.3h8.6c2,0,3.6,0.6,4.8,1.8c1.2,1.2,1.9,2.7,1.9,4.7
		c0,1.8-0.5,3.3-1.6,4.4c-1.1,1.1-2.4,1.7-3.9,1.8L544.1,130.1z M536.9,119.2c1.3,0,2.3-0.4,3.1-1.2c0.8-0.8,1.2-1.7,1.2-2.9
		c0-1.2-0.4-2.2-1.2-2.9c-0.8-0.8-1.8-1.1-3.1-1.1h-5.6v8.2H536.9z"/>
	<path class="st0" d="M565.7,130.1h-14v-21.3h14v2.4h-11.3v6.9h11.1v2.4h-11.1v7.4h11.3V130.1z"/>
</g>
</svg>
